<?xml version="1.0" encoding="UTF-8" standalone="no"?>
<!-- Created with Inkscape (http://www.inkscape.org/) -->

<svg
   xmlns:dc="http://purl.org/dc/elements/1.1/"
   xmlns:cc="http://creativecommons.org/ns#"
   xmlns:rdf="http://www.w3.org/1999/02/22-rdf-syntax-ns#"
   xmlns:svg="http://www.w3.org/2000/svg"
   xmlns="http://www.w3.org/2000/svg"
   xmlns:sodipodi="http://sodipodi.sourceforge.net/DTD/sodipodi-0.dtd"
   xmlns:inkscape="http://www.inkscape.org/namespaces/inkscape"
   width="128mm"
   height="128mm"
   viewBox="0 0 128 128"
   version="1.1"
   id="svg8"
   inkscape:version="0.92.3 (2405546, 2018-03-11)"
   sodipodi:docname="add.svg">
  <defs
     id="defs2" />
  <sodipodi:namedview
     id="base"
     pagecolor="#ffffff"
     bordercolor="#666666"
     borderopacity="1.0"
     inkscape:pageopacity="0.0"
     inkscape:pageshadow="2"
     inkscape:zoom="1.4221354"
     inkscape:cx="118.94247"
     inkscape:cy="251.98989"
     inkscape:document-units="mm"
     inkscape:current-layer="layer1"
     showgrid="false"
     inkscape:window-width="1920"
     inkscape:window-height="1017"
     inkscape:window-x="-8"
     inkscape:window-y="-8"
     inkscape:window-maximized="1" />
  <metadata
     id="metadata5">
    <rdf:RDF>
      <cc:Work
         rdf:about="">
        <dc:format>image/svg+xml</dc:format>
        <dc:type
           rdf:resource="http://purl.org/dc/dcmitype/StillImage" />
        <dc:title />
      </cc:Work>
    </rdf:RDF>
  </metadata>
  <g
     inkscape:label="Layer 1"
     inkscape:groupmode="layer"
     id="layer1"
     transform="translate(0,-169)">
    <path
       style="opacity:1;vector-effect:none;fill:#000000;fill-opacity:1;stroke:none;stroke-width:0.99999994;stroke-linecap:butt;stroke-linejoin:miter;stroke-miterlimit:4;stroke-dasharray:none;stroke-dashoffset:0;stroke-opacity:1"
       d="M 202.55859 41.837891 C 195.91059 41.837891 190.55859 47.189891 190.55859 53.837891 L 190.55859 190.55859 L 53.837891 190.55859 C 47.189891 190.55859 41.837891 195.91059 41.837891 202.55859 L 41.837891 281.2207 C 41.837891 287.8687 47.189891 293.2207 53.837891 293.2207 L 190.55859 293.2207 L 190.55859 429.94141 C 190.55859 436.58941 195.91059 441.94141 202.55859 441.94141 L 281.2207 441.94141 C 287.8687 441.94141 293.2207 436.58941 293.2207 429.94141 L 293.2207 293.2207 L 429.94141 293.2207 C 436.58941 293.2207 441.94141 287.8687 441.94141 281.2207 L 441.94141 202.55859 C 441.94141 195.91059 436.58941 190.55859 429.94141 190.55859 L 293.2207 190.55859 L 293.2207 53.837891 C 293.2207 47.189891 287.8687 41.837891 281.2207 41.837891 L 202.55859 41.837891 z "
       transform="matrix(0.26458333,0,0,0.26458333,0,169)"
       id="rect817" />
  </g>
</svg>
